<svg width="111" height="32" viewBox="0 0 111 32" fill="none" xmlns="http://www.w3.org/2000/svg">
<path fill-rule="evenodd" clip-rule="evenodd" d="M76.1709 7.10961C75.8734 7.08301 69.82 7.09052 69.619 7.11993C69.4231 7.66914 69.2511 8.23525 69.065 8.79666C68.8804 9.35213 68.7025 9.90948 68.5208 10.4659C68.3365 11.0295 68.15 11.5928 67.9658 12.1564C67.7815 12.7203 67.5992 13.2845 67.4149 13.8481C67.2332 14.4045 67.0499 14.9603 66.8682 15.5164C66.6839 16.0794 66.5009 16.6427 66.3164 17.2091C66.2151 17.1656 66.2224 17.0723 66.1993 17.0032C65.5715 15.1118 64.9474 13.2191 64.3231 11.3268C63.8871 10.0049 63.4523 8.68275 63.016 7.36152C62.9869 7.27328 62.9485 7.18847 62.9147 7.10335C62.8592 7.10022 62.8194 7.09584 62.78 7.09615C58.4646 7.0974 54.1489 7.09928 49.8336 7.10147C49.826 7.10147 49.8184 7.10648 49.8112 7.10992C49.8046 7.11305 49.7979 7.11743 49.7815 7.12682C49.7645 7.17877 49.7421 7.2376 49.7257 7.29831C49.071 9.70951 48.4173 12.1207 47.763 14.5319C47.5251 15.4094 47.2869 16.2869 47.0474 17.164C47.0339 17.2141 47.0096 17.2614 46.9783 17.3399C46.9408 17.242 46.9143 17.1772 46.891 17.1115C46.4439 15.8519 45.9972 14.592 45.5504 13.3321C44.8475 11.3493 44.1449 9.36621 43.4397 7.38406C43.4063 7.28955 43.3924 7.18346 43.3044 7.09615C41.142 7.09615 38.9729 7.09615 36.8039 7.09678C36.7739 7.09678 36.7446 7.10617 36.7102 7.11211C36.691 7.22227 36.7537 7.30175 36.7891 7.38625C39.0487 12.7882 41.1325 17.7661 43.3937 23.1675L43.4164 23.2219C43.7931 24.126 43.4943 25.1684 42.6942 25.7401C42.4576 25.9288 42.3746 25.9457 42.0809 26.0606C41.6477 26.2296 41.195 26.3128 40.7347 26.366C40.3618 26.4092 39.9873 26.4167 39.6125 26.4227C39.5588 26.4233 39.5052 26.4352 39.4553 26.4414C39.4247 26.6239 39.4131 29.2523 39.4304 31.7423C39.4307 31.8121 39.4377 31.8816 39.4421 31.9636C39.6254 31.9902 39.7995 31.997 39.9734 31.9989C40.5479 32.0061 41.1205 31.9767 41.6932 31.9235C42.3929 31.8584 43.0804 31.7323 43.7546 31.5361C45.086 31.1487 46.2622 30.4931 47.2673 29.5402C47.9293 28.9127 48.4795 28.198 48.9477 27.4194C49.4853 26.5269 49.9039 25.5796 50.2478 24.5992C51.572 20.8223 52.8955 17.0454 54.2193 13.2686C54.902 11.3205 55.5851 9.37216 56.2688 7.42442C56.2902 7.36246 56.318 7.30238 56.3565 7.20818C56.4025 7.31427 56.4363 7.38437 56.4637 7.45728C58.127 11.8438 63.0204 24.8023 63.0958 24.8705H69.4777C69.5177 24.7694 75.8406 8.10632 76.1236 7.35088C76.1517 7.27515 76.2163 7.20036 76.1709 7.10961ZM16.0728 13.4004C15.9365 14.5436 15.5689 15.602 14.8647 16.5292C13.9968 17.6721 12.8184 18.3549 11.3703 18.6237C10.98 18.6966 10.5815 18.7201 10.184 18.7198C9.0823 18.7188 7.98059 18.7195 6.87887 18.7198H6.63184C6.60502 18.5179 6.58736 6.62279 6.60976 6.25414C6.61165 6.2241 6.62238 6.19469 6.63152 6.15557C6.69999 6.15056 6.76182 6.14274 6.82366 6.14274C7.95598 6.1418 9.08861 6.13585 10.2212 6.1443C11.1393 6.15119 12.0275 6.31486 12.861 6.7126C14.2138 7.35819 15.1348 8.41124 15.6771 9.81164C15.8604 10.2851 15.9806 10.7821 16.0494 11.2846C16.1453 11.9913 16.1567 12.6963 16.0728 13.4004ZM21.4249 7.39804C20.5816 5.38177 19.3032 3.6919 17.5386 2.38006C15.4374 0.818177 13.0633 0.0245633 10.4406 0.00985517C7.0433 -0.00860826 3.64572 0.0045352 0.248459 0.0045352C0.178104 0.0045352 0.107432 0.010794 0.0383387 0.0139234C-0.0171886 0.139412 0.00394962 0.259581 0.00394962 0.375994C0.00268763 8.42104 0.00300313 16.4661 0.00300313 24.5111C0.00300313 24.5903 0.00142565 24.6695 0.00647359 24.7483C0.00868206 24.7856 0.0257189 24.8219 0.0399162 24.8729C0.139928 24.8748 0.234262 24.8779 0.328595 24.8779C3.53467 24.8782 6.74042 24.8782 9.94681 24.8782C10.4809 24.8785 11.0138 24.851 11.5461 24.8012C12.143 24.7455 12.7364 24.646 13.3163 24.4939C16.3435 23.7019 18.7195 22.0054 20.4162 19.3933C21.6161 17.546 22.2376 15.5038 22.3789 13.3182C22.4417 12.3462 22.4054 11.3746 22.2568 10.4079C22.0975 9.37144 21.83 8.36596 21.4249 7.39804ZM88.0415 13.8647C85.8172 13.8654 83.5927 13.8654 81.3577 13.8654C81.3577 13.8222 81.3501 13.7903 81.359 13.7637C81.723 12.6834 82.4357 11.8939 83.646 11.5318C83.9145 11.4517 84.1949 11.41 84.4745 11.3969C85.4194 11.3531 86.3397 11.4632 87.2218 12.2418C87.4689 12.4596 87.6651 12.7291 87.8194 13.0186C87.9582 13.2799 88.0746 13.5484 88.1415 13.8488C88.1005 13.8557 88.0708 13.8647 88.0415 13.8647ZM91.5117 9.20139C89.8491 7.45612 87.7772 6.57989 85.3842 6.42249C84.6929 6.3768 83.9988 6.39995 83.3082 6.49916C82.7157 6.58428 82.1327 6.70382 81.5645 6.8897C79.4295 7.58819 77.7574 8.87405 76.5888 10.7842C75.6751 12.2779 75.2574 13.9236 75.2233 15.6752C75.2056 16.588 75.3104 17.5037 75.5505 18.3849C76.2149 20.8243 77.6482 22.6728 79.8759 23.8961C81.3913 24.7282 83.0353 25.094 84.7532 25.1588C85.5665 25.1895 86.378 25.1507 87.1847 25.027C88.0312 24.8972 88.8515 24.6831 89.6396 24.3527C90.9028 23.8222 91.9815 23.043 92.8564 21.9912C92.8892 21.9515 92.9138 21.9049 92.9409 21.8635C92.709 21.6664 88.8146 18.971 88.6467 18.8919C88.5846 18.9444 88.5186 19.0008 88.4521 19.0562C87.7024 19.683 86.8345 20.0153 85.8606 20.0945C85.5091 20.1233 85.1602 20.1142 84.8097 20.0932C84.3456 20.0657 83.8919 19.989 83.4518 19.8432C82.5712 19.5519 81.908 19.0061 81.4976 18.1721C81.467 18.1101 81.4455 18.0438 81.4096 17.9537C81.886 17.9468 82.3377 17.9512 82.7895 17.9505C83.2438 17.9496 83.6982 17.9502 84.1531 17.9502H85.5167H86.8806H88.2445H89.608H90.9719H92.3355H93.7098C93.7297 17.8905 93.7407 17.8614 93.7489 17.8316C93.8997 17.263 93.9783 16.6856 93.995 16.0979C94.0247 15.0637 93.9237 14.0448 93.6486 13.0452C93.2492 11.5932 92.557 10.2982 91.5117 9.20139ZM29.8738 7.1052C26.6069 7.1052 23.9583 9.73201 23.9583 12.9728V24.694H29.8738V14.4583C29.8738 13.3599 30.7714 12.4696 31.8785 12.4696H35.2512V7.1052H29.8738Z" fill="#0065FF"/>
<path d="M95.6392 7.00002H96.5171V4.95457H97.7102C99.0597 4.95457 99.7273 4.13923 99.7273 3.06536C99.7273 1.99434 99.0654 1.18184 97.7131 1.18184H95.6392V7.00002ZM96.5171 4.21025V1.93468H97.6193C98.4887 1.93468 98.8438 2.40627 98.8438 3.06536C98.8438 3.72445 98.4887 4.21025 97.6307 4.21025H96.5171Z" fill="#0065FF"/>
<path d="M100.756 7.00002H101.634V4.79832H102.827C102.847 4.79832 102.864 4.79832 102.884 4.79832L104.066 7.00002H105.066L103.776 4.64491C104.489 4.3807 104.844 3.78695 104.844 3.0057C104.844 1.93468 104.18 1.18184 102.83 1.18184H100.756V7.00002ZM101.634 4.04264V1.93468H102.737C103.603 1.93468 103.961 2.34661 103.961 3.0057C103.961 3.66195 103.603 4.04264 102.748 4.04264H101.634Z" fill="#0065FF"/>
<path d="M110.967 4.09093C110.967 2.23014 109.853 1.10229 108.347 1.10229C106.836 1.10229 105.725 2.23014 105.725 4.09093C105.725 5.94889 106.836 7.07957 108.347 7.07957C109.853 7.07957 110.967 5.95173 110.967 4.09093ZM110.097 4.09093C110.097 5.50855 109.347 6.27843 108.347 6.27843C107.344 6.27843 106.597 5.50855 106.597 4.09093C106.597 2.67332 107.344 1.90343 108.347 1.90343C109.347 1.90343 110.097 2.67332 110.097 4.09093Z" fill="#0065FF"/>
</svg>
