<svg width="22" height="22" viewBox="0 0 22 22" fill="none" xmlns="http://www.w3.org/2000/svg">
<path d="M12.4667 18.3333H9.53333" stroke="#1D2C4B" stroke-width="1.5" stroke-linecap="round" stroke-linejoin="round"/>
<path fill-rule="evenodd" clip-rule="evenodd" d="M15.5833 9.19601V9.16668V9.16668C15.5833 6.63576 13.5309 4.58334 11 4.58334V4.58334C8.46909 4.58334 6.41668 6.63576 6.41668 9.16668V9.16668V9.19601V11.462C6.41668 11.759 6.24893 12.0294 5.98401 12.1623L5.52293 12.3924C4.94726 12.6812 4.58334 13.2697 4.58334 13.9132V13.9132C4.58334 14.8518 5.34418 15.6127 6.28284 15.6127H15.7172C16.6558 15.6127 17.4167 14.8518 17.4167 13.9132V13.9132C17.4167 13.2697 17.0528 12.6812 16.4771 12.3933L16.016 12.1633C15.7511 12.0294 15.5833 11.759 15.5833 11.462V9.19601Z" stroke="#1D2C4B" stroke-width="1.5" stroke-linecap="round" stroke-linejoin="round"/>
</svg>
