<svg width="22" height="22" viewBox="0 0 22 22" fill="none" xmlns="http://www.w3.org/2000/svg">
<path d="M12.9445 9.05545C14.0185 10.1294 14.0185 11.8706 12.9445 12.9445C11.8706 14.0185 10.1294 14.0185 9.05545 12.9445C7.98152 11.8706 7.98152 10.1294 9.05545 9.05545C10.1294 7.98152 11.8706 7.98152 12.9445 9.05545" stroke="#1D2C4B" stroke-width="1.5" stroke-linecap="round" stroke-linejoin="round"/>
<path fill-rule="evenodd" clip-rule="evenodd" d="M14.8317 17.1646V17.1646C15.2927 17.6257 16.0417 17.6257 16.5027 17.1646L17.1646 16.5027C17.6257 16.0417 17.6257 15.2927 17.1646 14.8317V14.8317C16.8144 14.4815 16.7117 13.9562 16.9042 13.4997C16.9244 13.4512 16.9446 13.4026 16.9638 13.3531C17.1316 12.9259 17.5477 12.6509 18.0061 12.6509H18.0675C18.7202 12.6509 19.2491 12.122 19.2491 11.4693V10.5334C19.2491 9.88075 18.7202 9.35183 18.0675 9.35183H18.0061C17.5477 9.35183 17.1316 9.07592 16.9638 8.64967C16.9446 8.60017 16.9244 8.55158 16.9042 8.503C16.7117 8.0465 16.8144 7.52125 17.1646 7.17108V7.17108C17.6257 6.71 17.6257 5.96108 17.1646 5.5L16.5027 4.83817C16.0417 4.37708 15.2927 4.37708 14.8317 4.83817V4.83817C14.4815 5.18833 13.9562 5.291 13.4997 5.0985C13.4512 5.07833 13.4026 5.05817 13.3531 5.03892C12.9259 4.86842 12.65 4.45133 12.65 3.993V3.93158C12.65 3.27892 12.1211 2.75 11.4684 2.75H10.5325C9.87892 2.75 9.35 3.27892 9.35 3.93158V3.993C9.35 4.45133 9.07408 4.8675 8.64783 5.03525C8.59833 5.05542 8.54975 5.07467 8.50117 5.09575C8.04467 5.28825 7.51942 5.18558 7.16925 4.83542V4.83542C6.70817 4.37433 5.95925 4.37433 5.49817 4.83542L4.83542 5.49725C4.37433 5.95833 4.37433 6.70725 4.83542 7.16833V7.16833C5.18558 7.5185 5.28825 8.04375 5.09575 8.50025C5.07467 8.54975 5.05542 8.59833 5.03617 8.64783C4.86842 9.07408 4.45133 9.35 3.993 9.35H3.93158C3.27892 9.35 2.75 9.87892 2.75 10.5316V11.4675C2.75 12.1211 3.27892 12.65 3.93158 12.65H3.993C4.45133 12.65 4.8675 12.9259 5.03525 13.3522C5.0545 13.4017 5.07467 13.4502 5.09483 13.4988C5.28733 13.9553 5.18467 14.4806 4.8345 14.8307V14.8307C4.37342 15.2918 4.37342 16.0407 4.8345 16.5018L5.49633 17.1637C5.95742 17.6247 6.70633 17.6247 7.16742 17.1637V17.1637C7.51758 16.8135 8.04283 16.7108 8.49933 16.9033C8.54792 16.9235 8.5965 16.9437 8.646 16.9629C9.07317 17.1307 9.34817 17.5468 9.34817 18.0052V18.0666C9.34817 18.7192 9.87708 19.2482 10.5297 19.2482H11.4657C12.1183 19.2482 12.6472 18.7192 12.6472 18.0666V18.0052C12.6472 17.5468 12.9232 17.1307 13.3494 16.9629C13.3989 16.9437 13.4475 16.9235 13.4961 16.9033C13.9553 16.7117 14.4806 16.8144 14.8317 17.1646V17.1646Z" stroke="#1D2C4B" stroke-width="1.5" stroke-linecap="round" stroke-linejoin="round"/>
</svg>
