<svg width="24" height="24" viewBox="0 0 24 24" fill="none" xmlns="http://www.w3.org/2000/svg">
<path d="M4 18V9" stroke="#1D2C4B" stroke-width="1.5" stroke-linecap="round" stroke-linejoin="round"/>
<path d="M20 9V18" stroke="#1D2C4B" stroke-width="1.5" stroke-linecap="round" stroke-linejoin="round"/>
<path d="M8 9V18" stroke="#1D2C4B" stroke-width="1.5" stroke-linecap="round" stroke-linejoin="round"/>
<path d="M12 9V18" stroke="#1D2C4B" stroke-width="1.5" stroke-linecap="round" stroke-linejoin="round"/>
<path d="M16 9V18" stroke="#1D2C4B" stroke-width="1.5" stroke-linecap="round" stroke-linejoin="round"/>
<path d="M12 6.27499C11.931 6.27499 11.875 6.33099 11.876 6.39999C11.876 6.46899 11.932 6.52499 12.001 6.52499C12.07 6.52499 12.126 6.46899 12.126 6.39999C12.125 6.33099 12.069 6.27499 12 6.27499" stroke="#1D2C4B" stroke-width="1.5" stroke-linecap="round" stroke-linejoin="round"/>
<path fill-rule="evenodd" clip-rule="evenodd" d="M21.5 9H2.5V6.361L12 3L21.5 6.361V9Z" stroke="#1D2C4B" stroke-width="1.5" stroke-linecap="round" stroke-linejoin="round"/>
<path fill-rule="evenodd" clip-rule="evenodd" d="M21 18H3L2 19V21H22V19L21 18Z" stroke="#1D2C4B" stroke-width="1.5" stroke-linecap="round" stroke-linejoin="round"/>
</svg>
