<svg width="24" height="24" viewBox="0 0 24 24" fill="none" xmlns="http://www.w3.org/2000/svg">
<path d="M15.722 7.27799C15.82 7.37599 15.82 7.53399 15.722 7.63199C15.624 7.72999 15.466 7.72999 15.368 7.63199C15.27 7.53399 15.27 7.37599 15.368 7.27799C15.466 7.18099 15.624 7.18099 15.722 7.27799" stroke="#1D2C4B" stroke-width="1.5" stroke-linecap="round" stroke-linejoin="round"/>
<path fill-rule="evenodd" clip-rule="evenodd" d="M13.512 3H17.897C19.059 3 20 3.941 20 5.102V9.487C20 10.045 19.778 10.579 19.384 10.974L10.974 19.384C10.153 20.205 8.82199 20.205 8.00099 19.384L3.61599 14.999C2.79499 14.178 2.79499 12.847 3.61599 12.026L12.026 3.616C12.42 3.222 12.955 3 13.512 3Z" stroke="#1D2C4B" stroke-width="1.5" stroke-linecap="round" stroke-linejoin="round"/>
<path d="M14 21H18C19.105 21 20 20.105 20 19V15" stroke="#1D2C4B" stroke-width="1.5" stroke-linecap="round" stroke-linejoin="round"/>
</svg>
