<svg width="24" height="24" viewBox="0 0 24 24" fill="none" xmlns="http://www.w3.org/2000/svg">
<path d="M12.94 11.06L5.87 18.13" stroke="#1D2C4B" stroke-width="1.5" stroke-linecap="round" stroke-linejoin="round"/>
<path d="M6.63301 12.999L3.17001 12.181C2.78901 12.091 2.65501 11.618 2.93101 11.341L5.68501 8.587C5.87001 8.402 6.12101 8.296 6.38401 8.294L9.48901 8.267" stroke="#1D2C4B" stroke-width="1.5" stroke-linecap="round" stroke-linejoin="round"/>
<path fill-rule="evenodd" clip-rule="evenodd" d="M19.879 8.975L20.687 5.087C20.907 4.029 19.971 3.093 18.913 3.313L15.025 4.121C13.88 4.359 12.83 4.926 12.004 5.753L8.81401 8.942C7.59701 10.159 6.80501 11.737 6.55501 13.44L6.54401 13.513C6.38601 14.6 6.75001 15.697 7.52601 16.474V16.474C8.30201 17.25 9.40001 17.614 10.487 17.455L10.56 17.444C12.263 17.195 13.841 16.402 15.058 15.185L18.247 11.996C19.074 11.17 19.641 10.12 19.879 8.975V8.975Z" stroke="#1D2C4B" stroke-width="1.5" stroke-linecap="round" stroke-linejoin="round"/>
<path d="M13.4 4.714C15.711 6.29 17.71 8.289 19.286 10.6" stroke="#1D2C4B" stroke-width="1.5" stroke-linecap="round" stroke-linejoin="round"/>
<path d="M11 17.367L11.818 20.83C11.908 21.211 12.381 21.345 12.658 21.069L15.412 18.315C15.597 18.13 15.703 17.879 15.705 17.616L15.732 14.511" stroke="#1D2C4B" stroke-width="1.5" stroke-linecap="round" stroke-linejoin="round"/>
</svg>
