<svg width="24" height="24" viewBox="0 0 24 24" fill="none" xmlns="http://www.w3.org/2000/svg">
<path fill-rule="evenodd" clip-rule="evenodd" d="M7.5 6H9.5C10.052 6 10.5 6.448 10.5 7V11C10.5 11.552 10.052 12 9.5 12H7.5C6.948 12 6.5 11.552 6.5 11V7C6.5 6.448 6.948 6 7.5 6Z" stroke="#1D2C4B" stroke-width="1.5" stroke-linecap="round" stroke-linejoin="round"/>
<path fill-rule="evenodd" clip-rule="evenodd" d="M7.5 15H9.5C10.052 15 10.5 15.448 10.5 16V17C10.5 17.552 10.052 18 9.5 18H7.5C6.948 18 6.5 17.552 6.5 17V16C6.5 15.448 6.948 15 7.5 15Z" stroke="#1D2C4B" stroke-width="1.5" stroke-linecap="round" stroke-linejoin="round"/>
<path fill-rule="evenodd" clip-rule="evenodd" d="M16.5 18H14.5C13.948 18 13.5 17.552 13.5 17V13C13.5 12.448 13.948 12 14.5 12H16.5C17.052 12 17.5 12.448 17.5 13V17C17.5 17.552 17.052 18 16.5 18Z" stroke="#1D2C4B" stroke-width="1.5" stroke-linecap="round" stroke-linejoin="round"/>
<path fill-rule="evenodd" clip-rule="evenodd" d="M16.5 9H14.5C13.948 9 13.5 8.552 13.5 8V7C13.5 6.448 13.948 6 14.5 6H16.5C17.052 6 17.5 6.448 17.5 7V8C17.5 8.552 17.052 9 16.5 9Z" stroke="#1D2C4B" stroke-width="1.5" stroke-linecap="round" stroke-linejoin="round"/>
<path fill-rule="evenodd" clip-rule="evenodd" d="M18 21H6C4.343 21 3 19.657 3 18V6C3 4.343 4.343 3 6 3H18C19.657 3 21 4.343 21 6V18C21 19.657 19.657 21 18 21Z" stroke="#1D2C4B" stroke-width="1.5" stroke-linecap="round" stroke-linejoin="round"/>
</svg>
