<svg width="24" height="24" viewBox="0 0 24 24" fill="none" xmlns="http://www.w3.org/2000/svg">
<path d="M22 8.99998L19.38 9.99998" stroke="white" stroke-width="1.5" stroke-linecap="round" stroke-linejoin="round"/>
<path d="M4.63 9.99998L2 8.99998" stroke="white" stroke-width="1.5" stroke-linecap="round" stroke-linejoin="round"/>
<path d="M18.25 14H15.75" stroke="white" stroke-width="1.5" stroke-linecap="round" stroke-linejoin="round"/>
<path d="M8.25 14H5.75" stroke="white" stroke-width="1.5" stroke-linecap="round" stroke-linejoin="round"/>
<path d="M19.379 9.99998L18.54 5.98798C18.297 4.82998 17.276 3.99998 16.092 3.99998H8.01201C6.85101 3.99998 5.84201 4.79998 5.57801 5.93098L4.62701 9.99998" stroke="white" stroke-width="1.5" stroke-linecap="round" stroke-linejoin="round"/>
<path fill-rule="evenodd" clip-rule="evenodd" d="M3.25 20H5.5C6.328 20 7 19.328 7 18.5V17.5H17V18.5C17 19.328 17.672 20 18.5 20H20.75C21.44 20 22 19.44 22 18.75V13C22 11.343 20.657 9.99998 19 9.99998H5C3.343 9.99998 2 11.343 2 13V18.75C2 19.44 2.56 20 3.25 20Z" stroke="white" stroke-width="1.5" stroke-linecap="round" stroke-linejoin="round"/>
</svg>
